<?xml version="1.0" encoding="UTF-8" standalone="no"?>
<!-- Created with Inkscape (http://www.inkscape.org/) -->

<svg
   xmlns:dc="http://purl.org/dc/elements/1.1/"
   xmlns:cc="http://creativecommons.org/ns#"
   xmlns:rdf="http://www.w3.org/1999/02/22-rdf-syntax-ns#"
   xmlns:svg="http://www.w3.org/2000/svg"
   xmlns="http://www.w3.org/2000/svg"
   xmlns:sodipodi="http://sodipodi.sourceforge.net/DTD/sodipodi-0.dtd"
   xmlns:inkscape="http://www.inkscape.org/namespaces/inkscape"
   width="1920"
   height="1080"
   viewBox="0 0 507.99999 285.75001"
   version="1.1"
   id="svg8"
   inkscape:version="0.92.4 (5da689c313, 2019-01-14)"
   sodipodi:docname="carots_ui.svg">
  <defs
     id="defs2" />
  <sodipodi:namedview
     id="base"
     pagecolor="#000000"
     bordercolor="#ffffff"
     borderopacity="1"
     inkscape:pageopacity="0.58823529"
     inkscape:pageshadow="2"
     inkscape:zoom="1.403125"
     inkscape:cx="178.30602"
     inkscape:cy="121.9581"
     inkscape:document-units="mm"
     inkscape:current-layer="layer1"
     showgrid="false"
     inkscape:pagecheckerboard="true"
     inkscape:showpageshadow="false"
     borderlayer="true"
     units="px"
     inkscape:window-width="1920"
     inkscape:window-height="1017"
     inkscape:window-x="1912"
     inkscape:window-y="-8"
     inkscape:window-maximized="1" />
  <metadata
     id="metadata5">
    <rdf:RDF>
      <cc:Work
         rdf:about="">
        <dc:format>image/svg+xml</dc:format>
        <dc:type
           rdf:resource="http://purl.org/dc/dcmitype/StillImage" />
        <dc:title />
      </cc:Work>
    </rdf:RDF>
  </metadata>
  <g
     inkscape:label="Calque 1"
     inkscape:groupmode="layer"
     id="layer1"
     transform="translate(0,-11.249983)">
    <path
       inkscape:connector-curvature="0"
       id="path1422"
       d="m 0.07109599,294.02206 c 0.254316,-1.26064 1.42692401,-3.31301 3.23260421,-5.65792 1.7445662,-2.26554 1.7201531,-2.26344 3.0259164,-0.26048 l 1.1240871,1.72428 -0.8580693,-2.18525 -0.8580607,-2.18525 1.5447372,-1.66251 c 1.6513649,-1.77725 7.6959541,-7.53933 8.3304451,-7.94109 0.333533,-0.21118 0.632991,0.19141 2.389884,3.21288 1.382264,2.37738 2.147589,3.48537 2.45447,3.55387 0.33157,0.074 0.308042,-0.12083 -0.09181,-0.75999 -0.660969,-1.05657 -2.197064,-5.82255 -2.296603,-7.12558 -0.06117,-0.8006 0.100852,-1.09557 1.00562,-1.83095 5.043173,-4.09892 6.754739,-4.78019 10.046692,-3.99893 2.58021,0.61233 4.492039,2.12534 6.263278,4.95669 2.873287,4.593 2.558288,9.29877 -0.808091,12.07238 l -1.102912,0.90871 -1.482686,-1.19848 c -1.80383,-1.45808 -4.227278,-3.90506 -4.923603,-4.97144 -0.50208,-0.76902 -0.510156,-0.76949 -0.389584,-0.025 0.07555,0.46655 0.970291,2.00802 2.316876,3.99152 l 2.193811,3.23144 -0.588416,0.3681 c -0.783304,0.49002 -5.48595,2.54866 -8.295937,3.63165 -2.228586,0.85891 -2.261972,0.86064 -3.051651,0.15746 -0.439125,-0.39104 -1.451989,-1.4698 -2.250814,-2.39727 -0.798832,-0.92746 -1.539825,-1.63161 -1.646662,-1.56478 -0.106837,0.0668 0.517068,1.25858 1.386462,2.64832 1.852264,2.96087 2.003986,2.66044 -1.97064,3.90226 -6.2656729,1.95762 -11.445366,2.80959 -13.239311,2.17762 -1.21213501,-0.427 -1.73347601,-1.41691 -1.46003301,-2.77226 z M 36.005673,271.34404 c 0.122518,-2.3266 0.448417,-3.77021 1.212554,-5.371 0.831156,-1.74121 1.932445,-2.46937 3.279789,-2.16857 1.101112,0.24581 1.39347,0.80196 1.289226,2.45245 -0.04799,0.75969 0.01301,0.91263 0.293898,0.73691 0.688404,-0.43065 2.612895,0.0502 3.059744,0.76449 0.446847,0.7143 0.03738,2.65523 -0.651028,3.08588 -0.280886,0.17572 -0.170039,0.29747 0.53409,0.58665 1.426072,0.58567 1.823903,1.08734 1.702526,2.14688 -0.216687,1.89143 -2.726912,2.61928 -6.06064,1.75728 -2.059505,-0.53252 -4.295711,-1.50837 -4.570999,-1.99471 -0.09751,-0.17285 -0.137861,-1.07102 -0.08915,-1.99624 z"
       style="fill:#ffffff;fill-opacity:1;stroke-width:0.28577745"
       sodipodi:nodetypes="csccccccccscccsccsccccssccsscccccccssscccccc" />
  </g>
</svg>
