<?xml version="1.0" encoding="UTF-8" standalone="no"?>
<!-- Created with Inkscape (http://www.inkscape.org/) -->

<svg
   xmlns:dc="http://purl.org/dc/elements/1.1/"
   xmlns:cc="http://creativecommons.org/ns#"
   xmlns:rdf="http://www.w3.org/1999/02/22-rdf-syntax-ns#"
   xmlns:svg="http://www.w3.org/2000/svg"
   xmlns="http://www.w3.org/2000/svg"
   xmlns:sodipodi="http://sodipodi.sourceforge.net/DTD/sodipodi-0.dtd"
   xmlns:inkscape="http://www.inkscape.org/namespaces/inkscape"
   width="1920"
   height="1080"
   viewBox="0 0 507.99999 285.75001"
   version="1.1"
   id="svg8"
   inkscape:version="0.92.4 (5da689c313, 2019-01-14)"
   sodipodi:docname="oaknut_ui.svg">
  <defs
     id="defs2" />
  <sodipodi:namedview
     id="base"
     pagecolor="#000000"
     bordercolor="#ffffff"
     borderopacity="1"
     inkscape:pageopacity="0.58823529"
     inkscape:pageshadow="2"
     inkscape:zoom="1.9843184"
     inkscape:cx="-68.828941"
     inkscape:cy="213.66352"
     inkscape:document-units="mm"
     inkscape:current-layer="layer1"
     showgrid="false"
     inkscape:pagecheckerboard="true"
     inkscape:showpageshadow="false"
     borderlayer="true"
     units="px"
     inkscape:window-width="1920"
     inkscape:window-height="1017"
     inkscape:window-x="1912"
     inkscape:window-y="-8"
     inkscape:window-maximized="1"
     inkscape:snap-nodes="false"
     inkscape:snap-others="false" />
  <metadata
     id="metadata5">
    <rdf:RDF>
      <cc:Work
         rdf:about="">
        <dc:format>image/svg+xml</dc:format>
        <dc:type
           rdf:resource="http://purl.org/dc/dcmitype/StillImage" />
        <dc:title />
      </cc:Work>
    </rdf:RDF>
  </metadata>
  <g
     inkscape:label="Calque 1"
     inkscape:groupmode="layer"
     id="layer1"
     transform="translate(0,-11.249983)">
    <path
       inkscape:connector-curvature="0"
       id="path825"
       d="m 34.907965,230.85415 c -1.729015,0.21152 -1.991118,2.22797 -2.053772,3.65322 -0.375642,2.10502 -0.162223,4.3565 -0.421424,6.29151 -0.299979,-1.07004 -3.90808,-1.0926 -4.617793,-1.55436 -6.114088,-1.45636 -13.037202,-1.82611 -18.6396466,1.5644 -1.1482022,0.74223 -2.3319301,2.01344 -2.9238559,2.94851 -0.3327054,0.96376 -1.0332707,1.78442 -1.1259973,2.86547 -0.412087,1.98869 9.4122718,9.11796 10.1252628,10.96913 -0.07578,0.13765 -9.6973626,-4.74483 -9.7722902,-4.60625 -4.0420802,7.47579 -6.8079477,16.28504 -4.81748072,24.79052 0.98688722,4.38804 3.44328102,8.31304 6.75647052,11.24291 1.5039298,1.38453 2.305872,3.3046 2.7782524,5.27242 0.419003,1.54028 1.750805,3.21465 3.455426,2.56428 1.924751,-0.39326 3.36433,-2.00247 5.35238,-2.16298 4.319246,0.0961 8.822377,-0.0333 12.696075,-2.26067 7.597079,-3.92475 12.164475,-12.00977 14.686683,-20.06015 0.260071,-0.67457 -3.882207,-2.23115 -3.533845,-2.8087 0.189957,-0.31493 4.666417,0.17654 5.109033,0.0716 1.212028,-0.67349 2.540328,-1.70234 3.166752,-2.76111 1.143341,-1.45762 1.794172,-3.34934 1.787886,-5.14036 0.05364,-5.39318 -3.588046,-9.91098 -7.301295,-13.34385 -2.187125,-1.95595 -8.028507,-4.59671 -10.578856,-6.0111 3.132323,-2.10057 5.133682,-4.49631 6.700441,-6.82373 0.506804,-1.65548 -1.066495,-2.8384 -2.459085,-3.14935 -1.438878,-0.50345 -2.827196,-1.47806 -4.369321,-1.55139 z m 4.844468,4.24514 c -2.877201,3.94414 -5.891602,6.16158 -5.891602,6.16158 0,0 0.907776,-5.74714 1.314319,-8.44001 1.342841,3.83186 0.155482,4.38956 4.577283,2.27843 z"
       style="fill:#fff8f8;fill-opacity:1;stroke-width:0.79375;stroke:#000000;stroke-opacity:1;stroke-miterlimit:4;stroke-dasharray:none"
       sodipodi:nodetypes="ccccccccscccccccsccccccccccccc" />
  </g>
</svg>
